<svg xmlns="http://www.w3.org/2000/svg" viewBox="0 0 960 114" xmlns:v="https://vecta.io/nano"><path d="M269.9 44.2c-.2 5.4-.7 9.3-1.4 11.8l-1.9-.6c.8-3 1.3-6.8 1.4-11.4l1.9.2zm10.6 5.8l-1.4 1.4c-1-1.7-2.3-3.6-4-5.7v30.5h-2V33.6h2v9.5l5.4 6.9zm28.3 2.7l-1.7 1.3-2.4-4.5c-9.6 1.5-17.2 2.6-22.9 3.2l-.6-1.4c4.6-4.4 8.6-10.5 11.8-18.3l1.8.8c-2.6 6.5-6.1 12-10.4 16.6 4.3-.3 10.7-1.1 19.3-2.5-1.6-2.6-3.5-5.5-5.9-8.7l1.4-1.2a88.39 88.39 0 0 1 9.6 14.7zm-3.5 23.6h-2v-3.6h-16.9v3.6h-2V57.4h20.9v18.9zm-2-5.5V59.2h-16.9v11.6h16.9zm29.9-11.6l-1.6 1.4-5.5-7.4v23.1h-2V52.1c-1.8 4.9-4.1 9.4-6.9 13.4l-1.5-1.5c3.8-5.1 6.5-10.6 8.3-16.4h-8.2v-1.8h8.4v-8c-2.6.7-4.7 1.2-6.3 1.5l-.9-1.7c5.7-.9 10.3-2.3 13.9-4L332 35c-1.4.6-3.3 1.3-5.9 2.1v8.6h6.2v1.8h-6.2v3.1c1.7 1.6 4 4.5 7.1 8.6zm25.4 16.1h-27.8v-1.9h13V65h-11.2v-1.8h11.2v-8c-4.1.4-7.5.6-10.4.6l-.7-1.8c9.9-.3 17.9-1.1 24-2.6l.8 1.6c-3.6.8-7.5 1.4-11.7 1.9v8.2h10.9v1.8h-10.9v8.4h12.8v2h0zm-3.4-27.4h-20.6V35.1h20.6v12.8zm-2-1.8v-9.2h-16.6v9.2h16.6zM386 60.3l-1.6 1.4c-2.1-3.3-4.6-6.5-7.5-9.5v24.1h-2V51.9c-2.1 4.8-5 9.5-8.5 14.1l-1.5-1.5c4.8-5.9 8.2-11.5 10-16.9h-9.6v-1.8h9.7V38c-2.7.6-5.3 1.1-7.8 1.4l-.9-1.8c7.7-.9 13.5-2.4 17.3-4.4l1.1 1.6c-1.9.9-4.4 1.8-7.7 2.7v8.3h7.7v1.8H377v2.2c3.6 3.8 6.7 7.3 9 10.5zm22.1 2.5l-5.3.8v12.9h-2V63.9l-17.3 2.7-.2-1.8 17.5-2.7V33.3h2v28.4l5.1-.8zM396.5 57l-1.5 1.4c-3-3.5-6.1-6.3-9.2-8.6l1.3-1.4c3.4 2.7 6.5 5.6 9.4 8.6zm1.2-12.9l-1.5 1.3c-2.5-2.8-5.4-5.4-8.8-7.7l1.3-1.3c3.1 2.1 6.1 4.7 9 7.7zm32.5 11.5l-6.4 2.5v15c0 .8-.2 1.4-.5 1.9s-.7.9-1.3 1.1c-.5.2-1.6.3-3.1.3h-2.3l-.6-1.9 3.7.1c1.4 0 2.1-.5 2.1-1.5V59l-7.1 2.5-.6-1.8 7.7-2.6V44.3h-7.3v-1.8h7.3v-8.9h1.9v8.9h5.8v1.8h-5.8v12l6-2.4.5 1.7zm27.4 19.3l-1.4 1.8c-4.8-2.1-8.9-4.7-12.3-7.9-3.3 2.6-8.4 5.2-15.4 7.6l-1.2-1.8c6.4-1.8 11.5-4.2 15.2-7.1-3.5-3.8-6.1-8.5-7.8-14.2h-2.5v-1.8h10.6v-8.7H431V41h11.8v-7.5h2V41h11.8v1.9h-11.8v8.7h9.3v2c-2.1 6.1-5 10.8-8.7 14 3.5 3.2 7.5 5.7 12.2 7.3zm-5.5-21.5h-15.3c1.3 4.8 3.8 9.1 7.3 12.9 3.7-3.4 6.3-7.7 8-12.9zm54.4-12.2H482c-1.3 2.3-2.7 4.3-4 6.2h22.6v25.3c0 1-.3 1.8-.9 2.4s-1.5 1-2.8 1.1l-4.6.2c-1.2 0-2.3 0-3.3-.1l-.7-1.9 5.4.2c2.3 0 3.7-.1 4.3-.3s.8-.7.8-1.4v-7.1H476c-.8 4.1-2.7 7.7-5.6 10.8l-1.9-1.1c2.5-2.5 4.2-5.1 5-7.9s1.2-6.4 1.2-10.7v-5.1c-3 3.2-6.2 5.9-9.7 8.1l-1.3-1.4c6.6-4.3 12-10 16.4-17.2h-16v-1.8h17.1c.9-1.6 1.9-3.6 3.1-6l1.9.6c-.9 1.8-1.8 3.7-2.8 5.5h23.4v1.6h-.3 0zm-7.9 22.6v-6.4h-22.2c0 2.6-.1 4.8-.4 6.4h22.6zm0-8.2v-6.4h-22l-.2.2v6.2h22.2zm24.8-7c3.4 2.6 5.1 6.7 5.1 12.1 0 3.8-2.1 5.6-6.4 5.6h-2.7l-.7-2c1.3.1 2.5.2 3.5.2 1.4 0 2.5-.3 3.2-1s1.1-1.8 1.1-3.6c0-4.6-1.8-8.3-5.3-10.9 2.4-5.2 4-9.4 4.8-12.5h-8.6v39.7h-2V34.8h12.7v1.8c-1.1 3.9-2.7 8-4.7 12zm29.4 6.1h-18.4v19l8.9-4.2.1 2.1c-3.4 1.7-7.1 3.3-11 5l-.9-1.7c.6-.3.9-.8.9-1.5V35h20.4v19.7zm-1.9-10.9v-7h-16.5v7h16.5zm0 9.1v-7.3h-16.5v7.3h16.5zm5.8 21.9l-1.2 1.7c-8-3.7-13.2-10.1-15.6-19.3l1.8-.7c1 3.5 2.1 6.3 3.4 8.4 3.9-2.7 6.8-5.3 8.6-7.6l1.6 1.3c-2.6 2.8-5.6 5.4-9.2 7.9 2.3 3.3 5.8 6.1 10.6 8.3zM579 34.2c-2.9 8.8-8 16-15.5 21.5l-1.6-1.5c7.2-5.2 12.3-12 15-20.7l2.1.7zm22.3 41.5l-1.8 1c-.8-2-1.9-4.2-3.1-6.5-9.8 2.6-19 4.3-27.7 5.1l-.6-2.2c5-6 9.7-14.5 14.3-25.6l2 .8c-4.2 10.1-8.6 18.3-13.4 24.6 6.3-.4 14.4-2 24.4-4.6-1.5-2.6-3.6-5.9-6.4-9.7l1.8-1c4.7 6.7 8.2 12.7 10.5 18.1zm4-22l-1.3 1.7c-6-4.1-10.7-10.6-14.2-19.6h-3.7V34h5.3c3 8.9 7.6 15.5 13.9 19.7zm46.6 18.4c0 1.5-.4 2.6-1.1 3.2-.7.7-2.4 1-5 1-1.3 0-3.3-.1-5.9-.2l-.7-2.1 6.5.3c1.7 0 2.8-.1 3.4-.4s.8-.8.8-1.6V36.4h-38.3v-1.8h40.2l.1 37.5h0zM613 43.6h31.2v1.9H613zm27.6 23.3h-24.1V52.6h24.1v14.3zm-1.9-1.9V54.5h-20.1V65h20.1z" enable-background="new" fill="#fff"/><path d="M190.9 0h15.2l29.2 57-29.2 57h-15.2l29.2-57-29.2-57zm-9.7 0h2.5l29.4 57-29.4 57h-2.5l29.4-57-29.4-57zm-57.1 0c9.4 0 18.5 3.1 25.8 9l2 1.7-11 11-2.8-2.2c-4.2-2.7-9.1-4.2-14.1-4.1-13.9 0-25.2 10.8-25.2 24.1 0 10 6.4 18.6 15.4 22.2l1.8.5V40.7h47.6v15.7h-31.5v7.1H156v15.7h-23.9V114h-16V78.3h-.2c-18.5-3.7-32.4-19.6-32.4-38.7C83.5 17.7 101.7 0 124.1 0zM63.6 0h2.5L36.6 57 66 114h-2.5L34.2 57 63.6 0zM41.2 0h15.2L27.2 57l29.2 57H41.2L12 57 41.2 0z" fill-rule="evenodd" fill="#fff"/></svg>