<svg xmlns="http://www.w3.org/2000/svg" viewBox="0 0 1000 510" xmlns:v="https://vecta.io/nano"><linearGradient id="A" gradientUnits="userSpaceOnUse" x1="293.234" y1="660.267" x2="706.778" y2="-149.691"><stop offset="0" stop-color="#00adb4"/><stop offset=".51" stop-color="#00e0e2"/><stop offset="1" stop-color="#0ff"/></linearGradient><path d="M801.3 0h67.9L1000 255.3 869.2 510.6h-67.9l130.8-255.3L801.3 0zm-43.5 0h11l131.9 255.3-131.9 255.3h-11l131.9-255.3L757.8 0zM502.1 0c42-.2 82.9 14.1 115.6 40.5l8.9 7.8-49.2 49.2-12.4-9.7c-18.8-12-40.7-18.6-63.1-18.4-62.2 0-112.9 48.3-112.9 107.8 0 44.7 28.5 83.1 68.8 99.4l8.2 2.3v-96.8h213.3v70.3H538V284h107v70.3H538v156.3h-71.5V350.9l-.8-.2c-82.9-16.5-145.1-88-145.1-173.4C320.3 79.3 401.7 0 502.1 0zM231.2 0h11L110.3 255.3l131.9 255.3h-11L99.4 255.3 231.2 0zM130.8 0h67.9L67.9 255.3l130.8 255.3h-67.9L0 255.3 130.8 0z" fill-rule="evenodd" fill="url(#A)"/><path d="M953.9.6v2.7H940v42.9h-3.1V3.3H923V.6h30.9 0zm10.8 0l16.1 29.5L996.5.6h3.6v45.6H997V12.7c0-1.3 0-4.5.4-5.8V3.3h0l-1.8 4-3.1 6.3L980.4 36l-12.1-22.8-4-8.1-.4-1.3h0v4.5l.4 8.5v30h-3.1V.6h3.5 0z" fill="#04eaeb"/></svg>