<?xml version="1.0" encoding="utf-8"?>
<!-- Generator: Adobe Illustrator 25.2.0, SVG Export Plug-In . SVG Version: 6.00 Build 0)  -->
<svg version="1.1" id="圖層_1" xmlns="http://www.w3.org/2000/svg" xmlns:xlink="http://www.w3.org/1999/xlink" x="0px" y="0px"
	 viewBox="0 0 1000 573" style="enable-background:new 0 0 1000 573;" xml:space="preserve">
<style type="text/css">
	.st0{fill-rule:evenodd;clip-rule:evenodd;fill:#FFFFFF;}
	.st1{fill:#FFFFFF;}
</style>
<path class="st0" d="M801.3,0.6h67.9L1000,255.9L869.2,511.2h-67.9l130.8-255.3L801.3,0.6z M757.8,0.6h11l131.9,255.3L768.8,511.2
	h-11l131.9-255.3L757.8,0.6z M502.1,0.6c42-0.2,82.9,14.1,115.6,40.5l8.9,7.8l-49.2,49.2L565,88.4c-18.8-12-40.7-18.6-63.1-18.4
	C439.7,70,389,118.3,389,177.8c0,44.7,28.5,83.1,68.8,99.4l8.2,2.3v-96.8h213.3V253H538v31.6h107v70.3H538v156.3h-71.5V351.5
	l-0.8-0.2c-82.9-16.5-145.1-88-145.1-173.4C320.3,79.9,401.7,0.6,502.1,0.6z M231.2,0.6h11L110.3,255.9l131.9,255.3h-11L99.4,255.9
	L231.2,0.6z M130.8,0.6h67.9L67.9,255.9l130.8,255.3h-67.9L0,255.9L130.8,0.6z"/>
<g>
	<path class="st1" d="M129.7,539.4l-0.2,0.2c-3-2.5-6.8-4.2-10.8-4.4c-7.2,0-14.8,7.6-14.8,17.5c0,11,8,17.5,14.6,17.5
		c4.2-0.2,8.2-1.7,11.4-4.4v3.4c-3.4,2.1-7.4,3.4-11.6,3.6c-10.1,0-17.3-9.3-17.3-20c0-11.6,8.4-20,17.7-20c4,0.2,7.8,1.5,11,3.6
		C129.7,536.3,129.7,539.4,129.7,539.4z"/>
	<path class="st1" d="M147.9,553.1c0-9.9,6.1-20.3,16.5-20.3c9.7,0,16.5,9.7,16.5,20.3c0,11-7.2,20-16.2,20
		C154.6,573,147.9,563.7,147.9,553.1z M177.8,552.9c0-10.1-7-17.5-13.5-17.5c-7,0-13.3,8-13.3,17.7c0,10.5,7,17.3,13.3,17.3
		C172.8,570.4,177.8,561.4,177.8,552.9L177.8,552.9z"/>
	<path class="st1" d="M214.6,533.5c6.1,0,10.3,1.5,13.5,5.1c3.4,4,5.1,9.1,4.9,14.1c0,8.6-4.2,19.6-20.3,19.6h-9.9v-38.8
		L214.6,533.5L214.6,533.5z M205.5,535.8V570h5.9c6.3,0,10.8-0.8,14.3-4.6c3.2-3.4,4.6-8,4.4-12.4c0.2-4.9-1.5-9.7-4.9-13.3
		c-2.7-2.7-5.5-3.8-12.2-3.8h-7.5V535.8z"/>
	<path class="st1" d="M257.2,572.3h-2.5v-38.8h2.5V572.3z"/>
	<path class="st1" d="M308.4,572.3h-2.5l-13.5-21.5c-2.3-3.8-5.1-8.4-8.2-14.3v0.2l0.2,5.1c0.2,4,0.2,4.4,0.2,5.1v25.5h-2.5v-38.8
		h2.5l15.4,24.9c0.8,1.3,2.3,4,5.5,9.7c0.2,0.4,0.4,0.8,0.6,1.3l0.2-0.2c-0.2-1.9-0.2-4.2-0.4-6.3c-0.2-2.1,0-2.3,0-3.2v-26.2h2.5
		L308.4,572.3z"/>
	<path class="st1" d="M358.6,540.1c-3-2.7-6.8-4.4-10.8-4.6c-6.3,0-14.8,6.8-14.8,17.7c0,9.9,6.5,17.5,13.9,17.5
		c5.5,0,10.3-4.2,10.3-11.8v-3.2h-12.9v-2.1h15.6v19H358l-0.4-5.5h-0.2c-2.1,3.8-6.1,6.3-10.5,6.3c-7.8,0-16.5-7.6-16.5-19.8
		s8.9-20.3,17.7-20.3c3.8,0.2,7.4,1.5,10.5,3.8V540.1z"/>
	<path class="st1" d="M436.1,533.5v2.3h-20.3v16H435v2.1h-19.2v18.4h-2.5v-38.8H436.1L436.1,533.5z"/>
	<path class="st1" d="M470.7,533.5c7,0,10.5,4.4,10.5,9.5c0,7.2-6.5,9.1-8.9,9.9l0,0c2.5,0.8,3.6,1.5,5.5,6.8l4.6,12.4h-3l-2.5-7.6
		c-3.2-9.9-5.3-10.8-10.8-10.8h-6.3v18.6h-2.5v-38.8L470.7,533.5L470.7,533.5z M459.9,535.8v16h7c7.6,0,11.4-3.6,11.4-8.6
		c0-4-3.4-7.4-7.4-7.2c-0.2,0-0.4,0-0.6,0H460v-0.2H459.9z"/>
	<path class="st1" d="M526.4,533.5v2.5h-20v15h19.2v2.1h-19.2V570h20.3v2.3h-23v-38.8H526.4z"/>
	<path class="st1" d="M571.5,533.5v2.5h-20v15h19.2v2.1h-19.2V570h20.3v2.3h-23v-38.8H571.5z"/>
	<path class="st1" d="M627.4,533.5V570h20.3v2.3h-22.8v-38.8H627.4z"/>
	<path class="st1" d="M670.5,572.3H668v-38.8h2.5V572.3z"/>
	<path class="st1" d="M698.3,533.5l13.5,25.1l13.5-25.1h3.2v38.8H726v-28.5c0-1.3,0.2-3.8,0.2-5.1c0-1.1,0.2-2.5,0.2-3l-0.2-0.2
		c-0.4,0.8-0.8,1.9-1.5,3.4c-1.5,3-1.7,3.4-2.7,5.5l-10.1,18.8L701.6,544c-0.8-1.7-2.7-5.5-3.4-7c0-0.2-0.4-1.1-0.6-1.3v0.2v3.6
		c0.2,1.7,0.2,4.4,0.2,7.2V572h-2.5v-38.8h3.2v0.3H698.3z"/>
	<path class="st1" d="M756.1,572.3h-2.5v-38.8h2.5V572.3z"/>
	<path class="st1" d="M803,533.5v2.3h-11.8v36.5h-2.5v-36.5h-12v-2.3H803L803,533.5z"/>
	<path class="st1" d="M846.2,533.5v2.5h-20v15h19.2v2.1h-19.2V570h20.3v2.3h-23v-38.8H846.2z"/>
	<path class="st1" d="M880.6,533.5c6.1,0,10.3,1.5,13.5,5.1c3.4,4,5.1,9.1,4.9,14.1c0,8.6-4.2,19.6-20.3,19.6h-9.9v-38.8
		L880.6,533.5L880.6,533.5z M871.3,535.8V570h5.9c6.3,0,10.8-0.8,14.3-4.6c3.2-3.4,4.6-8,4.4-12.4c0.2-4.9-1.5-9.7-4.9-13.3
		c-2.7-2.7-5.5-3.8-12.2-3.8h-7.5V535.8z"/>
</g>
</svg>
