<svg xmlns="http://www.w3.org/2000/svg" xmlns:xlink="http://www.w3.org/1999/xlink" viewBox="0 0 1000 573" xmlns:v="https://vecta.io/nano"><linearGradient id="A" gradientUnits="userSpaceOnUse" x1="293.235" y1="660.866" x2="706.779" y2="-149.092"><stop offset="0" stop-color="#00adb4"/><stop offset=".51" stop-color="#00e0e2"/><stop offset="1" stop-color="#0ff"/></linearGradient><path d="M801.3.6h67.9L1000 255.9 869.2 511.2h-67.9l130.8-255.3L801.3.6zm-43.5 0h11l131.9 255.3-131.9 255.3h-11l131.9-255.3L757.8.6zM502.1.6c42-.2 82.9 14.1 115.6 40.5l8.9 7.8-49.2 49.2-12.4-9.7c-18.8-12-40.7-18.6-63.1-18.4C439.7 70 389 118.3 389 177.8c0 44.7 28.5 83.1 68.8 99.4l8.2 2.3v-96.8h213.3V253H538v31.6h107v70.3H538v156.3h-71.5V351.5l-.8-.2c-82.9-16.5-145.1-88-145.1-173.4C320.3 79.9 401.7.6 502.1.6zM231.2.6h11L110.3 255.9l131.9 255.3h-11L99.4 255.9 231.2.6zM130.8.6h67.9L67.9 255.9l130.8 255.3h-67.9L0 255.9 130.8.6z" fill-rule="evenodd" fill="url(#A)"/><g fill="#0ff"><path d="M129.7 539.4l-.2.2c-3-2.5-6.8-4.2-10.8-4.4-7.2 0-14.8 7.6-14.8 17.5 0 11 8 17.5 14.6 17.5 4.2-.2 8.2-1.7 11.4-4.4v3.4a24.35 24.35 0 0 1-11.6 3.6c-10.1 0-17.3-9.3-17.3-20 0-11.6 8.4-20 17.7-20 4 .2 7.8 1.5 11 3.6 0-.1 0 3 0 3zm18.2 13.7c0-9.9 6.1-20.3 16.5-20.3 9.7 0 16.5 9.7 16.5 20.3 0 11-7.2 20-16.2 20-10.1-.1-16.8-9.4-16.8-20zm29.9-.2c0-10.1-7-17.5-13.5-17.5-7 0-13.3 8-13.3 17.7 0 10.5 7 17.3 13.3 17.3 8.5 0 13.5-9 13.5-17.5h0zm36.8-19.4c6.1 0 10.3 1.5 13.5 5.1 3.4 4 5.1 9.1 4.9 14.1 0 8.6-4.2 19.6-20.3 19.6h-9.9v-38.8h11.8 0zm-9.1 2.3V570h5.9c6.3 0 10.8-.8 14.3-4.6 3.2-3.4 4.6-8 4.4-12.4.2-4.9-1.5-9.7-4.9-13.3-2.7-2.7-5.5-3.8-12.2-3.8h-7.5v-.1zm51.7 36.5h-2.5v-38.8h2.5v38.8zm51.2 0h-2.5l-13.5-21.5c-2.3-3.8-5.1-8.4-8.2-14.3v.2l.2 5.1.2 5.1v25.5h-2.5v-38.8h2.5l15.4 24.9c.8 1.3 2.3 4 5.5 9.7.2.4.4.8.6 1.3l.2-.2c-.2-1.9-.2-4.2-.4-6.3s0-2.3 0-3.2v-26.2h2.5v38.7zm50.2-32.2c-3-2.7-6.8-4.4-10.8-4.6-6.3 0-14.8 6.8-14.8 17.7 0 9.9 6.5 17.5 13.9 17.5 5.5 0 10.3-4.2 10.3-11.8v-3.2h-12.9v-2.1h15.6v19H358l-.4-5.5h-.2c-2.1 3.8-6.1 6.3-10.5 6.3-7.8 0-16.5-7.6-16.5-19.8s8.9-20.3 17.7-20.3c3.8.2 7.4 1.5 10.5 3.8v3zm77.5-6.6v2.3h-20.3v16H435v2.1h-19.2v18.4h-2.5v-38.8h22.8 0zm34.6 0c7 0 10.5 4.4 10.5 9.5 0 7.2-6.5 9.1-8.9 9.9h0c2.5.8 3.6 1.5 5.5 6.8l4.6 12.4h-3l-2.5-7.6c-3.2-9.9-5.3-10.8-10.8-10.8h-6.3v18.6h-2.5v-38.8h13.4 0zm-10.8 2.3v16h7c7.6 0 11.4-3.6 11.4-8.6 0-4-3.4-7.4-7.4-7.2h-.6H460v-.2h-.1z"/><use xlink:href="#C"/><use xlink:href="#C" x="45.1"/><path d="M627.4 533.5V570h20.3v2.3h-22.8v-38.8h2.5zm43.1 38.8H668v-38.8h2.5v38.8zm27.8-38.8l13.5 25.1 13.5-25.1h3.2v38.8H726v-28.5l.2-5.1c0-1.1.2-2.5.2-3l-.2-.2-1.5 3.4-2.7 5.5-10.1 18.8-10.3-19.2-3.4-7c0-.2-.4-1.1-.6-1.3v.2 3.6c.2 1.7.2 4.4.2 7.2V572h-2.5v-38.8h3.2v.3h-.2zm57.8 38.8h-2.5v-38.8h2.5v38.8zm46.9-38.8v2.3h-11.8v36.5h-2.5v-36.5h-12v-2.3H803h0z"/><use xlink:href="#C" x="319.8"/><path d="M880.6 533.5c6.1 0 10.3 1.5 13.5 5.1 3.4 4 5.1 9.1 4.9 14.1 0 8.6-4.2 19.6-20.3 19.6h-9.9v-38.8h11.8 0zm-9.3 2.3V570h5.9c6.3 0 10.8-.8 14.3-4.6 3.2-3.4 4.6-8 4.4-12.4.2-4.9-1.5-9.7-4.9-13.3-2.7-2.7-5.5-3.8-12.2-3.8h-7.5v-.1z"/></g><path d="M953.9.6v2.7H940v42.9h-3.1V3.3H923V.6h30.9 0zm10.8 0l16.1 29.5L996.5.6h3.6v45.6H997V12.7c0-1.3 0-4.5.4-5.8V3.3h0l-1.8 4-3.1 6.3L980.4 36l-12.1-22.8-4-8.1-.4-1.3h0v4.5l.4 8.5v30h-3.1V.6h3.5 0z" fill="#04eaeb"/><defs ><path id="C" d="M526.4 533.5v2.5h-20v15h19.2v2.1h-19.2V570h20.3v2.3h-23v-38.8h22.7z"/></defs></svg>