<svg xmlns="http://www.w3.org/2000/svg" viewBox="0 0 960 114"><path d="M292.4 44.3l-.3.3c-2.1-1.6-5.9-4.3-10.4-4.3-6.9 0-14.1 7.4-14.1 17.2 0 10.7 7.6 17.2 13.9 17.2 4 0 7.5-1.8 10.8-4.4v3.3c-2 1.2-6 3.5-11 3.5-9.6 0-16.6-9.1-16.6-19.5 0-11.3 8.1-19.6 17-19.6 4.7 0 8.7 2.3 10.6 3.6v2.7h.1zm12.3 13.4c0-9.6 5.7-19.7 15.3-19.7 9.2 0 15.5 9.4 15.5 19.7 0 10.7-6.7 19.4-15.3 19.4-9.2-.1-15.5-9.2-15.5-19.4zm28-.2c0-9.8-6.4-17.2-12.7-17.2-6.5 0-12.6 7.7-12.6 17.4 0 10.4 6.6 17 12.5 17 8.1-.1 12.8-9 12.8-17.2zM362.1 39c5.9 0 9.9 1.4 12.9 4.8 2.4 2.6 4.6 7 4.6 13.4 0 8.3-4 18.7-19.4 18.7h-9.3v-37h11.2zm-8.7 2.2v32.6h5.5c6 0 10.3-.8 13.7-4.4 3-3.2 4.3-7.1 4.3-12 0-4.7-1.2-9.3-4.6-12.6-2.6-2.7-5.2-3.7-11.7-3.7h-7.2v.1zM397.1 76H395V39h2.1v37zm44.2 0h-2.5l-13-20.5c-2.3-3.7-5-8-7.9-13.6l-.1.1.2 4.8.2 4.9V76h-2.5V39h2.5l15 23.8c.7 1.2 2.3 3.8 5.3 9.2.1.2.6 1.1.6 1.3l.1-.1-.4-5.9c-.1-1.9-.1-2.2-.1-3.1v-25h2.5V76h.1zm41.9-31c-1.3-1.2-5.2-4.6-10.1-4.6-5.9 0-13.7 6.6-13.7 17.3 0 9.6 6.1 17.1 12.9 17.1 5.2 0 9.6-4.1 9.6-11.4v-3H470v-2.2h14.4v18.3h-2.1l-.4-5.4h-.1c-2.4 4.3-6 6.1-9.9 6.1-7.3 0-15.2-7.3-15.2-19.3 0-12.1 8.2-19.8 16.5-19.8 4.5 0 7.7 2.1 9.9 3.6v3.5h.1zm62.9-6v2.3H527v15.3h18.3v2H527V76h-2.4V39h21.5zm27.9 0c6.5 0 9.9 4.2 9.9 9.1 0 6.7-6.1 8.7-8.3 9.4v.1c2.3.8 3.3 1.4 5.1 6.4l4.3 12h-2.7l-2.4-7.4c-3-9.4-4.9-10.2-10.2-10.2h-5.9v17.5h-2.4V39H574zm-10.1 2.2v15.1h6.6c7.3 0 10.8-3.4 10.8-8.3 0-4.3-3.4-6.8-7.5-6.8h-9.9zm57.9-2.2v2.4H602v14.2h19.1v2.2H602v16h20v2.3h-22.6v-37h22.4zm37 0v2.4h-18.9v14.2h18.2v2.2h-18.2v16H659v2.3h-21.6v-37h21.4zm42.6 0v34.7h19.2v2.2H699V39h2.4 0zm35.7 37H734V39h3.1v37zm21.4-37l12.9 23.9L784.2 39h3.1v37h-2.5V48.9l.2-4.8.2-2.8-.1-.1c-.3.8-.7 1.8-1.4 3.2-1.3 2.9-1.6 3.3-2.7 5.1l-9.7 17.9-9.9-18.3-3.3-6.6c-.1-.2-.5-1.1-.5-1.2l-.1.1.1 3.5.2 6.9V76h-2.5V39h3.2zm49.4 37h-3.1V39h3.1v37zM847 39v2.2h-11.6V76h-2.5V41.3h-11.6V39H847zm35.7 0v2.4h-18.9v14.2H882v2.2h-18.2v16h19.1v2.3h-21.6v-37h21.4zm26.9 0c5.8 0 9.8 1.4 12.9 4.8 2.4 2.6 4.6 7 4.6 13.4 0 8.3-4 18.7-19.3 18.7h-9.4v-37h11.2zm-8.7 2.2v32.6h5.5c5.9 0 10.2-.8 13.6-4.4 3-3.2 4.3-7.1 4.3-12 0-4.7-1.2-9.3-4.6-12.6-2.6-2.7-5.2-3.7-11.7-3.7h-7.2v.1z" fill-rule="evenodd"/><linearGradient id="A" gradientUnits="userSpaceOnUse" x1="77.469" y1="147.416" x2="169.799" y2="-33.42"><stop offset="0" stop-color="#00adb4"/><stop offset=".51" stop-color="#00e0e2"/><stop offset="1" stop-color="#0ff"/></linearGradient><path d="M190.9 0h15.2l29.2 57-29.2 57h-15.2l29.2-57-29.2-57zm-9.7 0h2.5l29.4 57-29.4 57h-2.5l29.4-57-29.4-57zm-57.1 0c9.4 0 18.5 3.1 25.8 9l2 1.7-11 11-2.8-2.2c-4.2-2.7-9.1-4.2-14.1-4.1-13.9 0-25.2 10.8-25.2 24.1 0 10 6.4 18.6 15.4 22.2l1.8.5V40.7h47.6v15.7h-31.5v7.1H156v15.7h-23.9V114h-16V78.3h-.2c-18.5-3.7-32.4-19.6-32.4-38.7C83.5 17.7 101.7 0 124.1 0zM63.6 0h2.5L36.6 57 66 114h-2.5L34.2 57 63.6 0zM41.2 0h15.2L27.2 57l29.2 57H41.2L12 57 41.2 0z" fill-rule="evenodd" fill="url(#A)"/></svg>